<svg width="70" height="70" viewBox="0 0 70 70" fill="none" xmlns="http://www.w3.org/2000/svg">
<path d="M0 0H70V70C42.6633 70 27.3367 70 0 70V0Z" fill="#E3B873"/>
<g clip-path="url(#clip0)">
<path d="M37.3697 13C28.3791 13 21.0647 20.3144 21.0647 29.305V31.9788L16.5248 39.7924C16.4677 39.8907 16.4375 40.0025 16.4375 40.1163V42.83C16.4375 43.1862 16.7262 43.4746 17.082 43.4746H21.0647L21.065 47.8131C21.065 49.7386 22.6314 51.305 24.5569 51.305H25.8681C26.224 51.305 26.5123 51.0163 26.5123 50.6604C26.5123 50.3043 26.224 50.0159 25.8678 50.0159H24.5569C23.342 50.0159 22.3541 49.0276 22.3541 47.8131V43.4746H24.2007C24.5566 43.4746 24.8453 43.1862 24.8453 42.83V38.559C24.8453 38.2032 24.5566 37.9145 24.2007 37.9145H22.7771C22.4209 37.9145 22.1325 38.2032 22.1325 38.559C22.1325 38.9152 22.4209 39.2036 22.7771 39.2036H23.5562V42.1855H17.7266V40.6272H19.9294C20.2852 40.6272 20.5739 40.3385 20.5739 39.9827C20.5739 39.6265 20.2852 39.3382 19.9294 39.3382H18.2798L22.2581 32.4907C22.3188 32.392 22.3538 32.2762 22.3538 32.1526V29.305C22.3538 21.0254 29.0898 14.2891 37.3697 14.2891C45.6499 14.2891 52.3859 21.0254 52.3859 29.305V34.9997C52.3859 41.1929 48.6822 46.6543 42.9402 48.9477H41.2849C40.9287 48.9477 40.6403 49.2361 40.6403 49.5923C40.6403 49.9484 40.9287 50.2368 41.2849 50.2368H42.4202V55.7109H30.54V51.305H32.0308C32.387 51.305 32.6753 51.0166 32.6753 50.6604C32.6753 50.3046 32.387 50.0159 32.0308 50.0159H29.8971H29.8954H28.4503C28.0945 50.0159 27.8058 50.3043 27.8058 50.6604C27.8058 51.0163 28.0945 51.305 28.4503 51.305H29.2509V56.3555C29.2509 56.7116 29.5396 57 29.8954 57H43.0647C43.4205 57 43.7092 56.7116 43.7092 56.3555V50.026C46.5559 48.8249 48.9883 46.8523 50.7642 44.2997C52.6682 41.5621 53.675 38.3465 53.675 34.9997V29.305C53.675 20.3144 46.3605 13 37.3697 13Z" fill="white"/>
<path d="M28.885 28.5933C28.885 30.3329 29.408 32.0043 30.398 33.4273C31.2798 34.6949 32.4729 35.6869 33.8677 36.3173V37.6476H33.8006C33.4444 37.6476 33.156 37.936 33.156 38.2922C33.156 38.648 33.4444 38.9367 33.8006 38.9367H33.8677V40.6947C33.8677 41.0506 34.1564 41.3393 34.5122 41.3393H34.5797V42.8304C34.5797 43.1862 34.8684 43.4749 35.2242 43.4749H39.4953C39.8511 43.4749 40.1398 43.1862 40.1398 42.8304V41.3393H40.2073C40.5631 41.3393 40.8518 41.0506 40.8518 40.6947V38.9367H40.9189C41.2751 38.9367 41.5635 38.648 41.5635 38.2922C41.5635 37.936 41.2751 37.6476 40.9189 37.6476H40.8518V36.3173C42.2466 35.6869 43.4397 34.6949 44.3215 33.4273C45.3112 32.0043 45.8345 30.3329 45.8345 28.5933C45.8345 23.9201 42.0328 20.1184 37.3596 20.1184C32.6867 20.1184 28.885 23.9201 28.885 28.5933V28.5933ZM35.8688 30.6615H36.381L37.6157 31.8965C37.7366 32.0174 37.9007 32.0855 38.0716 32.0855C38.2425 32.0855 38.4066 32.0174 38.5275 31.8965L38.8507 31.5733V35.2451H35.8688V30.6615ZM38.8507 42.1859H35.8688V41.3393H38.8507V42.1859ZM39.5627 40.0502H35.1568V38.9367H39.5627V40.0502ZM35.1568 37.6476V36.5341H39.5627V37.6476H35.1568ZM37.3599 21.4075C41.3221 21.4075 44.5454 24.6311 44.5454 28.5933C44.5454 31.5155 42.822 34.0967 40.1398 35.2202V30.017C40.1398 30.017 40.1398 30.017 40.1398 30.0167V29.305C40.1398 28.9492 39.8511 28.6605 39.4953 28.6605C39.1391 28.6605 38.8507 28.9492 38.8507 29.305V29.7501L38.0716 30.5293L37.1038 29.5611C36.9829 29.4403 36.8188 29.3725 36.6479 29.3725H35.8688V29.305C35.8688 28.9492 35.5804 28.6605 35.2242 28.6605C34.8684 28.6605 34.5797 28.9492 34.5797 29.305V35.2202C31.8975 34.0967 30.1741 31.5155 30.1741 28.5933C30.1741 24.6311 33.3974 21.4075 37.3599 21.4075V21.4075Z" fill="white"/>
<path d="M38.0041 18.6273V16.4919C38.0041 16.1358 37.7157 15.8474 37.3596 15.8474C37.0037 15.8474 36.715 16.1358 36.715 16.4919V18.6273C36.715 18.9835 37.0037 19.2718 37.3596 19.2718C37.7157 19.2718 38.0041 18.9835 38.0041 18.6273Z" fill="white"/>
<path d="M29.1955 19.6065C28.9438 19.3551 28.5356 19.3551 28.2838 19.6065C28.0324 19.8583 28.0324 20.2665 28.2838 20.5183L29.7941 22.0282C29.92 22.1541 30.0848 22.2172 30.2499 22.2172C30.4148 22.2172 30.5796 22.1541 30.7055 22.0282C30.9573 21.7765 30.9573 21.3686 30.7055 21.1168L29.1955 19.6065Z" fill="white"/>
<path d="M27.3049 28.0378H25.1693C24.8134 28.0378 24.5247 28.3265 24.5247 28.6824C24.5247 29.0385 24.8134 29.3269 25.1693 29.3269H27.3049C27.6608 29.3269 27.9495 29.0385 27.9495 28.6824C27.9495 28.3265 27.6608 28.0378 27.3049 28.0378Z" fill="white"/>
<path d="M29.7944 35.3364L28.2841 36.8467C28.0323 37.0985 28.0323 37.5063 28.2841 37.7581C28.41 37.884 28.5748 37.9468 28.7396 37.9468C28.9048 37.9468 29.0696 37.884 29.1955 37.7581L30.7058 36.2481C30.9576 35.9964 30.9576 35.5882 30.7058 35.3364C30.454 35.0846 30.0458 35.085 29.7944 35.3364Z" fill="white"/>
<path d="M44.014 35.3363C43.7623 35.5881 43.7623 35.9959 44.014 36.2477L45.524 37.758C45.6499 37.8839 45.815 37.9466 45.9798 37.9466C46.1447 37.9466 46.3098 37.8839 46.4357 37.758C46.6875 37.5062 46.6875 37.098 46.4357 36.8462L44.9254 35.3363C44.6737 35.0845 44.2658 35.0845 44.014 35.3363Z" fill="white"/>
<path d="M49.5503 29.3269C49.9065 29.3269 50.1948 29.0382 50.1948 28.6824C50.1948 28.3262 49.9065 28.0378 49.5503 28.0378H47.4146C47.0584 28.0378 46.7701 28.3262 46.7701 28.6824C46.7701 29.0382 47.0584 29.3269 47.4146 29.3269H49.5503Z" fill="white"/>
<path d="M45.524 19.6063L44.0137 21.1166C43.7622 21.3684 43.7622 21.7762 44.014 22.028C44.1396 22.1539 44.3047 22.2167 44.4695 22.2167C44.6344 22.2167 44.7995 22.1539 44.9254 22.028L46.4354 20.5177C46.6871 20.2659 46.6871 19.8581 46.4354 19.6063C46.1839 19.3545 45.7757 19.3545 45.524 19.6063V19.6063Z" fill="white"/>
</g>
<defs>
<clipPath id="clip0">
<rect x="13" y="13" width="44" height="44" fill="white"/>
</clipPath>
</defs>
</svg>
